PathFileType	4	(X/Y/Z)	/Users/itak/Documents/Research/Walk-IL/dataset/trc/00016_00004.trc
DataRate	CameraRate	NumFrames	NumMarkers	Units	OrigDataRate	OrigDataStartFrame	OrigNumFrames
100.000000	100.000000	4	53	mm	100.000000	67	540
Frame#	Time	RPSI			LPSI			L3			STRN			T10			C7			CLAV			RBAK			LBAK			LSHO			LUPA			LAEL			LAOL			LWTS			LWPS			LFRA			LIFD			LHPS			LHTS			RSHO			RUPA			RAEL			RAOL			RWTS			RWPS			RFRA			RIFD			RHTS			RHPS			RBHD			LFHD			RFHD			LBHD			LHIP			RHIP			RASI			LASI			LKNE			LTHI			LANK			LTIP			LTOE			LMT1			LMT5			LHEE			RKNE			RTHI			RANK			RTIP			RTOE			RMT1			RMT5			RHEE			
		X1	Y1	Z1	X2	Y2	Z2	X3	Y3	Z3	X4	Y4	Z4	X5	Y5	Z5	X6	Y6	Z6	X7	Y7	Z7	X8	Y8	Z8	X9	Y9	Z9	X10	Y10	Z10	X11	Y11	Z11	X12	Y12	Z12	X13	Y13	Z13	X14	Y14	Z14	X15	Y15	Z15	X16	Y16	Z16	X17	Y17	Z17	X18	Y18	Z18	X19	Y19	Z19	X20	Y20	Z20	X21	Y21	Z21	X22	Y22	Z22	X23	Y23	Z23	X24	Y24	Z24	X25	Y25	Z25	X26	Y26	Z26	X27	Y27	Z27	X28	Y28	Z28	X29	Y29	Z29	X30	Y30	Z30	X31	Y31	Z31	X32	Y32	Z32	X33	Y33	Z33	X34	Y34	Z34	X35	Y35	Z35	X36	Y36	Z36	X37	Y37	Z37	X38	Y38	Z38	X39	Y39	Z39	X40	Y40	Z40	X41	Y41	Z41	X42	Y42	Z42	X43	Y43	Z43	X44	Y44	Z44	X45	Y45	Z45	X46	Y46	Z46	X47	Y47	Z47	X48	Y48	Z48	X49	Y49	Z49	X50	Y50	Z50	X51	Y51	Z51	X52	Y52	Z52	X53	Y53	Z53	

68	0.67	1050.741577148438	1052.338623046875	-232.0667114257812	1039.170043945312	1045.101196289062	-395.42138671875	1039.373413085938	1108.42919921875	-321.8780517578125	1251.220703125	1311.926513671875	-328.2754211425781	1004.570495605469	1251.823364257812	-322.900146484375	1037.830200195312	1522.16162109375	-333.1967163085938	1202.290283203125	1436.024291992188	-331.4163208007812	995.7733154296875	1381.549072265625	-252.4471740722656	1020.933166503906	1480.070556640625	-430.3450317382812	1122.633666992188	1491.050048828125	-505.9136962890625	1092.497802734375	1366.345703125	-583.7926025390625	1090.714721679688	1149.296020507812	-610.4700927734375	1040.309204101562	1135.667114257812	-518.869384765625	1177.937133789062	895.1068115234375	-562.9197387695312	1098.8720703125	881.6954956054688	-601.679931640625	1101.970947265625	1033.407470703125	-618.7612915039062	1202.364501953125	710.197265625	-548.1325073242188	1130.2568359375	791.7049560546875	-603.4109497070312	1195.972290039062	800.1792602539062	-578.2463989257812	1120.517211914062	1509.694458007812	-159.9177551269531	1111.017456054688	1437.715698242188	-86.90048980712891	1084.209838867188	1169.4619140625	-60.88335800170898	1084.274169921875	1139.011352539062	-156.0512084960938	1228.771240234375	918.193115234375	-85.11219024658203	1163.660034179688	900.85546875	-21.76112747192383	1101.326904296875	1094.721923828125	-43.58940887451172	1254.05322265625	738.9613037109375	-99.79261779785156	1268.56494140625	811.4139404296875	-66.01013946533203	1211.8359375	804.1494750976562	-17.73043060302734	1142.495971679688	1692.786376953125	-226.2991180419922	1246.260009765625	1726.69677734375	-407.3103332519531	1288.95361328125	1717.81396484375	-318.707763671875	1072.5986328125	1710.127075195312	-352.8435974121094	1128.517822265625	947.6416625976562	-507.2537841796875	1175.340576171875	948.7722778320312	-139.5143280029297	1271.897827148438	983.5623168945312	-218.5854644775391	1249.602661132812	998.1588134765625	-453.6840209960938	1162.6611328125	503.3278198242188	-458.0505676269531	1143.043579101562	640.3013916015625	-491.7835083007812	1039.060913085938	29.22654342651367	-450.2115173339844	1068.319702148438	275.1935119628906	-470.3086547851562	1263.465087890625	23.96126556396484	-397.3316650390625	1204.839111328125	35.35824966430664	-377.3341369628906	1161.408813476562	25.77168273925781	-476.2205200195312	972.5248413085938	37.14170074462891	-393.4511108398438	1170.177612304688	512.1273193359375	-185.9177703857422	1198.724365234375	782.3126831054688	-142.6493225097656	1041.922119140625	34.12310409545898	-201.7014923095703	1140.478759765625	390.3026428222656	-185.015380859375	1271.3740234375	28.97427749633789	-251.5650939941406	1207.302734375	35.5779914855957	-279.558349609375	1190.534545898438	27.95365333557129	-182.8772277832031	983.189697265625	36.18130874633789	-243.8451080322266	
69	0.68	1051.02685546875	1052.328002929688	-232.0818176269531	1039.286499023438	1045.06640625	-395.4906005859375	1039.45703125	1108.389770507812	-321.9031677246094	1251.274780273438	1311.926025390625	-328.1959228515625	1004.802795410156	1251.771362304688	-322.876220703125	1037.908569335938	1522.112548828125	-333.0075988769531	1202.3447265625	1435.96533203125	-331.1874084472656	995.9324951171875	1381.439819335938	-252.3655548095703	1021.056274414062	1480.0478515625	-430.1898193359375	1122.789672851562	1491.136474609375	-505.7620239257812	1092.80859375	1366.410400390625	-583.737060546875	1091.376586914062	1149.400512695312	-610.5488891601562	1040.853271484375	1135.591064453125	-519.0162963867188	1179.147583007812	895.4173583984375	-563.0581665039062	1100.137939453125	881.7871704101562	-601.9080200195312	1102.8662109375	1033.499877929688	-618.8801879882812	1203.9482421875	710.4309692382812	-548.3350219726562	1131.76904296875	791.8993530273438	-603.6544189453125	1197.348022460938	800.3490600585938	-578.3431396484375	1120.355834960938	1509.546264648438	-159.8549194335938	1111.109252929688	1437.576904296875	-86.74591827392578	1084.504028320312	1169.287231445312	-60.8537483215332	1084.58349609375	1138.841674804688	-156.0611267089844	1229.400024414062	918.2960815429688	-85.36881256103516	1164.459594726562	900.7708129882812	-21.97209358215332	1101.667358398438	1094.528198242188	-43.6475830078125	1255.0205078125	739.1478271484375	-100.0907363891602	1269.525634765625	811.6347045898438	-66.36263275146484	1212.752197265625	804.1408081054688	-18.09809875488281	1144.155517578125	1692.244018554688	-225.7415161132812	1244.279052734375	1727.230346679688	-408.5336608886719	1288.71923828125	1718.301513671875	-320.8399963378906	1071.77392578125	1709.654541015625	-350.9216003417969	1128.85107421875	947.6000366210938	-507.2681579589844	1175.389038085938	948.7186889648438	-139.5456390380859	1272.120971679688	983.5746459960938	-218.6197662353516	1249.94580078125	998.1988525390625	-453.7224731445312	1163.072631835938	503.3043518066406	-458.0978088378906	1143.168334960938	640.38232421875	-491.748291015625	1039.064331054688	29.23809432983398	-450.1949157714844	1068.496337890625	275.1684265136719	-470.298828125	1263.48046875	23.9391040802002	-397.3292236328125	1204.85400390625	35.33195114135742	-377.3643798828125	1161.400512695312	25.75689506530762	-476.2441711425781	972.5250854492188	37.18608093261719	-393.427978515625	1170.252075195312	512.1459350585938	-185.9378204345703	1198.928344726562	782.2460327148438	-142.8467407226562	1041.934936523438	34.15309143066406	-201.7201690673828	1140.503173828125	390.3356323242188	-185.03173828125	1271.37890625	28.97884941101074	-251.5630187988281	1207.295166015625	35.56698226928711	-279.5602111816406	1190.541381835938	27.97157669067383	-182.8937683105469	983.2124633789062	36.20163345336914	-243.8651275634766	
70	0.6900000000000001	1051.304321289062	1052.32080078125	-232.0894927978516	1039.395385742188	1045.037231445312	-395.5443115234375	1039.5224609375	1108.3515625	-321.922607421875	1251.29638671875	1311.919189453125	-328.1112670898438	1005.006530761719	1251.721313476562	-322.8306274414062	1037.965454101562	1522.065185546875	-332.8132019042969	1202.3740234375	1435.905029296875	-330.9560241699219	996.0482788085938	1381.337280273438	-252.2672882080078	1021.172119140625	1480.029418945312	-430.0283813476562	1122.906005859375	1491.20068359375	-505.6088562011719	1093.094482421875	1366.47900390625	-583.6712646484375	1092.023071289062	1149.508422851562	-610.6375122070312	1041.404541015625	1135.500366210938	-519.1873779296875	1180.3779296875	895.7380981445312	-563.2208251953125	1101.43017578125	881.8897705078125	-602.1608276367188	1103.756713867188	1033.597045898438	-619.0211791992188	1205.61328125	710.713623046875	-548.5835571289062	1133.32568359375	792.107421875	-603.9334716796875	1198.8291015625	800.6366577148438	-578.533447265625	1120.225708007812	1509.420288085938	-159.7836761474609	1111.185424804688	1437.45068359375	-86.5948486328125	1084.776611328125	1169.124755859375	-60.82648849487305	1084.852294921875	1138.697998046875	-156.0697937011719	1229.954956054688	918.3794555664062	-85.65209197998047	1165.147705078125	900.6782836914062	-22.20640563964844	1101.986694335938	1094.346435546875	-43.70833969116211	1255.868041992188	739.296875	-100.4180297851562	1270.366455078125	811.8179931640625	-66.74418640136719	1213.526000976562	804.10693359375	-18.49664306640625	1145.763305664062	1691.771118164062	-225.2759246826172	1242.396728515625	1727.699462890625	-409.7100524902344	1288.47998046875	1718.74365234375	-322.9143676757812	1071.060302734375	1709.21435546875	-349.0714416503906	1129.144165039062	947.5761108398438	-507.2857666015625	1175.4267578125	948.670654296875	-139.5772247314453	1272.333251953125	983.5819702148438	-218.6528778076172	1250.249145507812	998.2396240234375	-453.76220703125	1163.459594726562	503.2737426757812	-458.171875	1143.1806640625	640.4613647460938	-491.7608947753906	1039.066528320312	29.24893379211426	-450.1813659667969	1068.634643554688	275.1483764648438	-470.2906188964844	1263.498168945312	23.92191314697266	-397.3303527832031	1204.862182617188	35.30354690551758	-377.3998718261719	1161.390869140625	25.73940086364746	-476.2763061523438	972.5272216796875	37.22529983520508	-393.4069519042969	1170.329345703125	512.166259765625	-185.9650115966797	1199.085327148438	782.1888427734375	-143.0097045898438	1041.948852539062	34.18391799926758	-201.7398529052734	1140.532836914062	390.3731689453125	-185.0533599853516	1271.382202148438	28.98329544067383	-251.561767578125	1207.28515625	35.55090713500977	-279.5652465820312	1190.551635742188	27.99493789672852	-182.9159240722656	983.2327880859375	36.21982955932617	-243.8865051269531	
71	0.7000000000000001	1051.556396484375	1052.316528320312	-232.0899047851562	1039.495361328125	1045.01220703125	-395.5835876464844	1039.57275390625	1108.31396484375	-321.9334716796875	1251.289428710938	1311.906616210938	-328.0162658691406	1005.1787109375	1251.671264648438	-322.7648620605469	1038.001342773438	1522.016967773438	-332.6145935058594	1202.380493164062	1435.8486328125	-330.72900390625	996.1233520507812	1381.2412109375	-252.1518402099609	1021.277221679688	1480.015625	-429.8663635253906	1122.984252929688	1491.240356445312	-505.4503784179688	1093.3564453125	1366.550537109375	-583.5936279296875	1092.648315429688	1149.618041992188	-610.738037109375	1041.960693359375	1135.400268554688	-519.3806762695312	1181.617309570312	896.0579223632812	-563.3990478515625	1102.743530273438	882.0071411132812	-602.4345092773438	1104.639038085938	1033.701049804688	-619.1844482421875	1207.367797851562	711.0662841796875	-548.88037109375	1134.918212890625	792.3287353515625	-604.2421875	1200.416381835938	801.0572509765625	-578.8214111328125	1120.128173828125	1509.31494140625	-159.7048645019531	1111.245727539062	1437.336059570312	-86.44573974609375	1085.021118164062	1168.972778320312	-60.80112838745117	1085.080200195312	1138.578857421875	-156.0756988525391	1230.443115234375	918.44189453125	-85.96038055419922	1165.726318359375	900.5767822265625	-22.45722961425781	1102.274780273438	1094.17724609375	-43.77391052246094	1256.586547851562	739.3992309570312	-100.7668228149414	1271.078491210938	811.9554443359375	-67.14751434326172	1214.164184570312	804.0514526367188	-18.91564178466797	1147.30419921875	1691.37109375	-224.8966064453125	1240.623291015625	1728.105712890625	-410.8379821777344	1288.23779296875	1719.137573242188	-324.9154052734375	1070.451171875	1708.81201171875	-347.3048706054688	1129.399658203125	947.5689697265625	-507.3036804199219	1175.458740234375	948.6322631835938	-139.6026000976562	1272.528198242188	983.58349609375	-218.6755981445312	1250.50390625	998.2716064453125	-453.7919616699219	1163.817016601562	503.2347412109375	-458.271484375	1143.116088867188	640.527587890625	-491.8247375488281	1039.067993164062	29.25877380371094	-450.1703491210938	1068.74072265625	275.1314392089844	-470.2848510742188	1263.51611328125	23.9080696105957	-397.3352966308594	1204.864135742188	35.27424240112305	-377.4383544921875	1161.380126953125	25.72092628479004	-476.3153381347656	972.5307006835938	37.25878524780273	-393.3887023925781	1170.4052734375	512.185546875	-185.9934844970703	1199.196044921875	782.1431274414062	-143.1221008300781	1041.964111328125	34.21415328979492	-201.7603302001953	1140.569580078125	390.4144897460938	-185.0799102783203	1271.384521484375	28.98763275146484	-251.5608673095703	1207.274291992188	35.53142547607422	-279.5736694335938	1190.564208984375	28.02116012573242	-182.9416351318359	983.2503662109375	36.23668670654297	-243.9085083007812	
